<svg width="120" height="120" xmlns="http://www.w3.org/2000/svg"><g fill="#5544D0" fill-rule="nonzero"><path d="M85.926 68.032h-1.992c-1.1 0-1.992.891-1.992 1.991v7.967c0 1.1.892 1.992 1.992 1.992h1.992a5.975 5.975 0 1 0 0-11.95zm0 7.966v-3.983a1.992 1.992 0 0 1 0 3.983zM85.926 87.949h-1.992c-1.1 0-1.992.891-1.992 1.991v7.967c0 1.1.892 1.992 1.992 1.992h1.992a5.975 5.975 0 1 0 0-11.95zm0 7.966v-3.983a1.992 1.992 0 0 1 0 3.983z"/><path d="M95.984 83.965c2.169-1.776 3.884-5.047 3.884-10.954a12.946 12.946 0 0 0-11.95-12.896V56.08h-3.984v3.984h-3.983V56.08h-3.984v3.984h-3.983c-1.1 0-1.992.892-1.992 1.991v7.967c0 1.1.892 1.992 1.992 1.992h1.992v23.9h-1.992c-1.1 0-1.992.892-1.992 1.992v7.967c0 1.1.892 1.992 1.992 1.992h5.975v3.983h3.983v-3.983h1.992v3.983h3.983v-4.033a12.946 12.946 0 0 0 11.95-12.896c0-5.908-1.714-9.178-3.883-10.955zm-6.075 1.992c1.633 0 5.975 0 5.975 8.963a8.973 8.973 0 0 1-8.962 8.962H73.976V99.9h1.991c1.1 0 1.992-.892 1.992-1.992V70.023c0-1.1-.892-1.991-1.992-1.991h-1.991v-3.984h12.946a8.973 8.973 0 0 1 8.962 8.963c0 8.962-4.342 8.962-5.975 8.962a1.992 1.992 0 0 0 0 3.984z"/><path d="M99.48 51.65a35.821 35.821 0 0 0-15.546-3.535 35.575 35.575 0 0 0-15.547 3.597c8.662-17.89 1.182-39.413-16.707-48.075C33.792-5.025 12.268 2.455 3.606 20.343c-8.662 17.889-1.183 39.413 16.706 48.075a35.987 35.987 0 0 0 31.368 0c-8.568 17.83-1.06 39.23 16.769 47.8 17.83 8.568 39.23 1.06 47.8-16.77 8.568-17.83 1.06-39.23-16.77-47.799zM36.133 68.031C18.474 68.09 4.11 53.823 4.051 36.165 3.991 18.505 18.26 4.142 35.918 4.082 53.578 4.023 67.941 18.291 68 35.95a31.975 31.975 0 0 1-8.741 22.076c-.433.41-.855.832-1.265 1.265a31.727 31.727 0 0 1-21.86 8.742zm69.701 39.095a31.85 31.85 0 0 1-21.9 8.705c-17.574.026-31.842-14.201-31.867-31.775a31.822 31.822 0 0 1 8.741-21.953c.432-.41.854-.832 1.265-1.264 12.782-12.085 32.94-11.52 45.024 1.263 12.084 12.781 11.519 32.94-1.263 45.024z"/><path d="M59.663 21.065l-3.242 2.315a21.994 21.994 0 0 1 0 25.569l3.242 2.314a25.98 25.98 0 0 0 0-30.198zM15.846 23.38l-3.243-2.315a25.98 25.98 0 0 0 0 30.198l3.243-2.314a21.994 21.994 0 0 1 0-25.57zM107.464 68.866l-3.243 2.314a21.994 21.994 0 0 1 0 25.57l3.243 2.314a25.98 25.98 0 0 0 0-30.198zM63.647 71.18l-3.243-2.314a25.98 25.98 0 0 0 0 30.198l3.243-2.314a21.994 21.994 0 0 1 0-25.57zM10.35 80.677l-3.678 1.527a57.846 57.846 0 0 0 1.715 3.745l3.561-1.793a51.912 51.912 0 0 1-1.597-3.48zM6.566 65.86l-3.96.429c.146 1.364.343 2.734.584 4.077l3.922-.705a53.518 53.518 0 0 1-.546-3.8zM7.927 73.41l-3.86.981a58.085 58.085 0 0 0 1.163 3.958l3.784-1.261a54.029 54.029 0 0 1-1.087-3.679zM18.168 93.812l-3.099 2.512a58.996 58.996 0 0 0 2.7 3.11l2.915-2.722a53.64 53.64 0 0 1-2.516-2.9zM13.788 87.526l-3.421 2.036a58.435 58.435 0 0 0 2.23 3.465l3.27-2.276a54.41 54.41 0 0 1-2.079-3.225zM29.37 104.25l-2.271 3.271a54.19 54.19 0 0 0 3.465 2.229l2.034-3.422a56.338 56.338 0 0 1-3.229-2.077zM23.4 99.433l-2.714 2.914a55.815 55.815 0 0 0 3.115 2.7l2.497-3.105a51.788 51.788 0 0 1-2.898-2.51zM35.966 108.17l-1.785 3.557a55.332 55.332 0 0 0 3.75 1.717l1.524-3.68a55.119 55.119 0 0 1-3.49-1.594zM43.052 111.104l-1.254 3.78c1.3.433 2.63.823 3.955 1.157l.982-3.857a54.405 54.405 0 0 1-3.683-1.08zM50.485 112.994l-.707 3.922c1.329.239 2.701.434 4.08.581l.424-3.96a54.393 54.393 0 0 1-3.797-.543zM116.877 49.764l-3.922.705c.227 1.25.408 2.527.546 3.8l3.96-.428a57.866 57.866 0 0 0-.584-4.077zM89.51 10.38L87.47 13.8a56.338 56.338 0 0 1 3.228 2.078l2.27-3.27a59.335 59.335 0 0 0-3.457-2.23zM82.136 6.685l-1.524 3.68a55.12 55.12 0 0 1 3.49 1.594l1.784-3.557a55.332 55.332 0 0 0-3.75-1.717zM66.21 2.632l-.424 3.96c1.284.139 2.563.32 3.796.543l.707-3.921a57.919 57.919 0 0 0-4.08-.582zM74.314 4.098l-.982 3.858c1.233.315 2.472.677 3.683 1.08L78.27 5.25a49.656 49.656 0 0 0-3.956-1.153zM96.267 15.082l-2.498 3.105a51.788 51.788 0 0 1 2.898 2.51l2.715-2.914a57.055 57.055 0 0 0-3.115-2.7zM107.47 27.102l-3.27 2.277a54.41 54.41 0 0 1 2.079 3.224l3.424-2.035a59.497 59.497 0 0 0-2.233-3.466zM111.676 34.18l-3.557 1.785a52.915 52.915 0 0 1 1.594 3.488l3.678-1.528a57.846 57.846 0 0 0-1.715-3.744zM102.298 20.705l-2.914 2.712a53.64 53.64 0 0 1 2.515 2.9l3.1-2.501a58.995 58.995 0 0 0-2.701-3.111zM114.84 41.78l-3.781 1.262a56.044 56.044 0 0 1 1.081 3.68l3.862-.984a58.086 58.086 0 0 0-1.163-3.957zM49.381 42.524H36.739l1.404-7.951 7.105-3.544c.551-.276.898-.84.895-1.458v-6.476a1.62 1.62 0 0 0-2.343-1.449l-3.703 1.852 1.164-6.597A1.619 1.619 0 0 0 39.667 15H28.333c-.81 0-1.495.598-1.604 1.4l-2.016 14.79-6.818 3.4c-.551.276-.898.84-.895 1.458v6.476a1.62 1.62 0 0 0 2.343 1.457l3.885-1.943-1.363 9.994a1.619 1.619 0 0 0 1.611 1.825h25.905A1.62 1.62 0 0 0 51 52.238v-8.095c0-.894-.725-1.62-1.619-1.62zm-1.62 8.095h-22.43l1.526-11.194a1.619 1.619 0 0 0-2.328-1.666l-4.29 2.145v-2.856l6.686-3.343c.478-.24.808-.699.88-1.229l1.942-14.238h7.99l-1.388 7.865a1.619 1.619 0 0 0 2.319 1.731l4.237-2.12v2.857l-6.94 3.47c-.458.229-.781.662-.87 1.167l-1.88 10.653a1.619 1.619 0 0 0 1.595 1.9h12.952v4.858z"/></g></svg>