<svg width="120" height="120" xmlns="http://www.w3.org/2000/svg"><g fill="#5544D0" fill-rule="nonzero"><path d="M119.003 116.197l-9.98-7.983a1.996 1.996 0 0 0-1.247-.438H88.754L82.1 99.793h27.672c5.509-.006 9.973-4.47 9.98-9.98V9.98c-.007-5.508-4.471-9.973-9.98-9.979H9.98C4.472.007.007 4.471.001 9.981v79.833c.006 5.508 4.47 9.973 9.98 9.98h27.672l-6.655 7.982H11.976c-.453 0-.893.154-1.247.438l-9.98 7.983a1.996 1.996 0 0 0 1.248 3.555h115.759a1.996 1.996 0 0 0 1.247-3.555zM9.98 95.8a5.987 5.987 0 0 1-5.987-5.987V9.98A5.987 5.987 0 0 1 9.98 3.993h99.792a5.987 5.987 0 0 1 5.988 5.987v79.834a5.987 5.987 0 0 1-5.988 5.987H9.98zm32.87 3.992h34.053l6.654 7.983H36.196l6.654-7.983zM7.687 115.76l4.99-3.992h94.403l4.986 3.992H7.687z"/><path d="M109.772 7.984H9.98A1.996 1.996 0 0 0 7.984 9.98v71.85c0 1.103.894 1.996 1.996 1.996h99.792a1.996 1.996 0 0 0 1.996-1.995V9.98a1.996 1.996 0 0 0-1.996-1.997zm-1.996 71.85h-95.8V11.977h95.8v67.859zM49.897 87.818h19.958v3.992H49.897z"/><path d="M89.814 29.939h-1.996a1.996 1.996 0 0 0-1.996 1.995v7.984c0 1.102.894 1.996 1.996 1.996h1.996a5.987 5.987 0 1 0 0-11.975zm0 7.983V33.93a1.996 1.996 0 0 1 0 3.992zM89.814 49.897h-1.996a1.996 1.996 0 0 0-1.996 1.996v7.983c0 1.102.894 1.996 1.996 1.996h1.996a5.987 5.987 0 1 0 0-11.975zm0 7.983V53.89a1.996 1.996 0 0 1 0 3.991z"/><path d="M99.893 45.905c2.173-1.78 3.892-5.057 3.892-10.977A12.973 12.973 0 0 0 91.81 22.005v-4.041h-3.992v3.991h-3.992v-3.991h-3.991v3.991h-3.992a1.996 1.996 0 0 0-1.996 1.996v7.983c0 1.103.894 1.996 1.996 1.996h1.996v23.95h-1.996a1.996 1.996 0 0 0-1.996 1.996v7.984c0 1.102.894 1.995 1.996 1.995h5.988v3.992h3.991v-3.992h1.996v3.992h3.992v-4.041a12.973 12.973 0 0 0 11.975-12.924c0-5.92-1.719-9.196-3.892-10.977zm-6.087 1.996c1.636 0 5.987 0 5.987 8.981a8.991 8.991 0 0 1-8.981 8.982H77.839v-3.992h1.996a1.996 1.996 0 0 0 1.996-1.996V31.934a1.996 1.996 0 0 0-1.996-1.995h-1.996v-3.992h12.973a8.991 8.991 0 0 1 8.981 8.981c0 8.982-4.35 8.982-5.987 8.982a1.996 1.996 0 0 0 0 3.991zM65.864 21.955h-47.9a1.996 1.996 0 0 0-1.996 1.996v1.996a9.961 9.961 0 0 0 8.652 9.845 20.823 20.823 0 0 0 11.306 14.82v15.252h-7.983v3.991h27.942v-3.991H47.9V50.612a20.823 20.823 0 0 0 11.307-14.82 9.961 9.961 0 0 0 8.652-9.845V23.95a1.996 1.996 0 0 0-1.996-1.996zm-45.905 3.992h3.992v3.992c0 .556.034 1.103.068 1.648a5.974 5.974 0 0 1-4.06-5.64zm23.95 39.917h-3.991V51.749c1.324.192 2.668.192 3.992 0v14.115zm11.976-35.925c0 9.905-6.267 17.962-13.971 17.962S27.943 39.844 27.943 29.94v-3.992h27.942v3.992zm3.923 1.648a26.39 26.39 0 0 0 .068-1.648v-3.992h3.992a5.974 5.974 0 0 1-4.06 5.64z"/><path d="M69.855 43.91h3.992v3.992h-3.992zM61.872 43.91h3.992v3.992h-3.992z"/></g></svg>