<svg width="120" height="120" xmlns="http://www.w3.org/2000/svg"><g fill="#5544D0" fill-rule="nonzero"><path d="M119.003 116.197l-9.98-7.983a1.996 1.996 0 0 0-1.247-.438H88.752L82.1 99.793h27.672c5.509-.006 9.973-4.47 9.98-9.98V9.98c-.007-5.508-4.471-9.973-9.98-9.979H9.98C4.472.007.007 4.471.001 9.981v79.833c.006 5.508 4.47 9.973 9.98 9.98h27.672L31 107.775H11.976c-.453 0-.893.154-1.247.438l-9.98 7.983a1.996 1.996 0 0 0 1.248 3.555h115.759a1.996 1.996 0 0 0 1.247-3.555zM9.98 95.8a5.987 5.987 0 0 1-5.987-5.987V9.98A5.987 5.987 0 0 1 9.98 3.993h99.792a5.987 5.987 0 0 1 5.988 5.987v79.834a5.987 5.987 0 0 1-5.988 5.987H9.98zm32.868 3.992h34.057l6.652 7.983H36.196l6.652-7.983zM7.687 115.76l4.99-3.992h94.403l4.986 3.992H7.687z"/><path d="M109.772 7.984H9.98A1.996 1.996 0 0 0 7.984 9.98v71.85c0 1.103.894 1.996 1.996 1.996h99.792a1.996 1.996 0 0 0 1.996-1.995V9.98a1.996 1.996 0 0 0-1.996-1.997zm-1.996 71.85h-95.8V11.977h95.8v67.859zM49.897 87.818h19.958v3.992H49.897z"/><path d="M73.946 49.896h-1.048c-.579 0-1.048.465-1.048 1.04v4.158c0 .574.47 1.04 1.048 1.04h1.048c1.736 0 3.143-1.397 3.143-3.12 0-1.722-1.407-3.118-3.143-3.118zm0 4.158v-2.079c.579 0 1.048.465 1.048 1.04 0 .574-.47 1.04-1.048 1.04zM73.946 60.374h-1.048c-.579 0-1.048.466-1.048 1.04v4.158c0 .574.47 1.04 1.048 1.04h1.048c1.736 0 3.143-1.397 3.143-3.12 0-1.722-1.407-3.118-3.143-3.118zm0 4.158v-2.079c.579 0 1.048.466 1.048 1.04 0 .574-.47 1.04-1.048 1.04z"/><path d="M79.255 58.129c1.16-.938 2.076-2.664 2.076-5.783-.004-3.568-2.785-6.533-6.387-6.807v-2.13h-2.129v2.103h-2.129V43.41h-2.129v2.102h-2.129c-.588 0-1.064.471-1.064 1.052v4.205c0 .58.476 1.052 1.064 1.052h1.065v12.616h-1.065c-.588 0-1.064.47-1.064 1.052v4.205c0 .58.476 1.051 1.064 1.051h3.194v2.103h2.129v-2.103h1.064v2.103h2.129V70.72c3.602-.274 6.383-3.24 6.387-6.808 0-3.118-.917-4.844-2.076-5.782zm-3.247 1.051c.873 0 3.194 0 3.194 4.731-.003 2.612-2.146 4.729-4.79 4.732h-6.92V66.54h1.065c.588 0 1.065-.47 1.065-1.051v-14.72c0-.58-.477-1.051-1.065-1.051h-1.064v-2.103h6.919c2.644.003 4.787 2.12 4.79 4.731 0 4.732-2.32 4.732-3.194 4.732-.588 0-1.064.47-1.064 1.05 0 .582.476 1.052 1.064 1.052z"/><path d="M81.064 41.04a18.94 18.94 0 0 0-8.223-1.87 18.81 18.81 0 0 0-8.225 1.904c4.583-9.468.626-20.86-8.837-25.444-9.463-4.585-20.849-.626-25.43 8.842-4.583 9.468-.626 20.86 8.837 25.444a19.028 19.028 0 0 0 16.593 0c-4.533 9.437-.561 20.763 8.87 25.298 9.432 4.535 20.753.562 25.285-8.875 4.533-9.436.562-20.763-8.87-25.298zm-33.51 8.671c-9.34.032-16.939-7.52-16.97-16.866-.032-9.346 7.516-16.948 16.857-16.98 9.341-.03 16.94 7.52 16.97 16.867a16.928 16.928 0 0 1-4.623 11.683c-.23.218-.452.44-.67.67a16.779 16.779 0 0 1-11.563 4.626zm36.871 20.692a16.844 16.844 0 0 1-11.584 4.608c-9.297.013-16.844-7.517-16.857-16.818a16.847 16.847 0 0 1 4.624-11.619c.228-.217.45-.44.669-.67 6.76-6.395 17.424-6.095 23.817.67 6.392 6.764 6.093 17.433-.669 23.829z"/><path d="M47.526 29.765c-.58 0-1.051-.473-1.051-1.056 0-.582.47-1.055 1.051-1.055.58 0 1.051.473 1.051 1.055 0 .583.471 1.056 1.052 1.056h4.205c.58 0 1.052-.473 1.052-1.056-.005-3.67-2.691-6.78-6.309-7.304V19.21h-2.102v2.195c-4.019.615-6.78 4.383-6.168 8.417.544 3.588 3.604 6.248 7.219 6.276.58 0 1.051.472 1.051 1.055s-.47 1.056-1.051 1.056c-.58 0-1.051-.473-1.051-1.056 0-.583-.471-1.055-1.052-1.055h-4.205c-.58 0-1.052.472-1.052 1.055.005 3.67 2.69 6.78 6.309 7.304v2.196h2.102v-2.196c4.019-.614 6.78-4.382 6.168-8.416-.544-3.588-3.604-6.248-7.219-6.276zm-.002 12.666a5.262 5.262 0 0 1-5.15-4.222h2.177a3.15 3.15 0 0 0 4.025 1.93 3.17 3.17 0 0 0 1.922-4.041 3.155 3.155 0 0 0-2.972-2.111c-2.903 0-5.257-2.364-5.256-5.279 0-2.914 2.355-5.277 5.258-5.276a5.262 5.262 0 0 1 5.15 4.222H50.5a3.15 3.15 0 0 0-4.025-1.93 3.17 3.17 0 0 0-1.922 4.04 3.155 3.155 0 0 0 2.972 2.112c2.903 0 5.256 2.364 5.256 5.278 0 2.915-2.355 5.277-5.258 5.277zM60.08 24.948l-1.702 1.224a11.699 11.699 0 0 1 0 13.52l1.702 1.223a13.82 13.82 0 0 0 0-15.967zM36.674 26.172l-1.702-1.224a13.82 13.82 0 0 0 0 15.967l1.702-1.224a11.699 11.699 0 0 1 0-13.52zM85.278 50.146l-1.702 1.223a11.699 11.699 0 0 1 0 13.52l1.702 1.223a13.82 13.82 0 0 0 0-15.966zM62.12 51.37l-1.701-1.224a13.82 13.82 0 0 0 0 15.966l1.702-1.223a11.699 11.699 0 0 1 0-13.52zM33.847 56.632l-1.914.795c.274.66.574 1.315.892 1.95l1.853-.934a27.032 27.032 0 0 1-.831-1.811zM31.88 48.649l-2.192.237c.08.755.19 1.514.323 2.257l2.172-.39c-.126-.693-.226-1.4-.302-2.104zM32.632 52.64l-1.946.496c.17.67.369 1.343.587 2l1.908-.638a27.322 27.322 0 0 1-.549-1.858zM38.077 63.368l-1.653 1.337c.459.567.943 1.124 1.44 1.657l1.554-1.45a28.572 28.572 0 0 1-1.341-1.544zM35.791 60.125l-1.862 1.107c.379.637.787 1.272 1.214 1.887l1.78-1.24a29.61 29.61 0 0 1-1.132-1.754zM44.147 68.857l-1.236 1.78c.619.434 1.253.838 1.886 1.213l1.107-1.863c-.588-.35-1.18-.73-1.757-1.13zM40.866 66.362l-1.448 1.553c.531.499 1.094.983 1.661 1.44l1.333-1.655a27.621 27.621 0 0 1-1.546-1.338zM47.581 70.852l-.928 1.851c.636.32 1.293.622 1.951.894l.793-1.916a28.68 28.68 0 0 1-1.816-.829zM51.029 72.599l-.634 1.91c.657.218 1.33.415 1.999.585l.496-1.95a27.49 27.49 0 0 1-1.861-.545zM55.277 73.597l-.391 2.172c.736.133 1.496.24 2.26.322l.234-2.193a30.134 30.134 0 0 1-2.103-.301zM90.488 40.166l-2.172.39c.126.693.226 1.4.302 2.105l2.193-.237c-.08-.756-.19-1.514-.323-2.258zM75.955 19.21l-1.11 1.863c.588.351 1.18.73 1.757 1.13l1.236-1.78c-.62-.43-1.254-.838-1.883-1.213zM71.895 17.214l-.793 1.915a28.68 28.68 0 0 1 1.816.83l.928-1.852a28.792 28.792 0 0 0-1.951-.893zM63.354 14.969l-.235 2.193c.711.078 1.42.178 2.103.302l.391-2.173a32.087 32.087 0 0 0-2.26-.322zM67.856 15.967l-.496 1.95a27.49 27.49 0 0 1 1.86.545l.634-1.913a25.09 25.09 0 0 0-1.998-.582zM79.42 21.705l-1.333 1.655c.532.425 1.048.876 1.546 1.339l1.448-1.554a30.43 30.43 0 0 0-1.661-1.44zM85.355 28.191l-1.78 1.24c.399.57.779 1.161 1.132 1.754l1.863-1.108a32.38 32.38 0 0 0-1.215-1.886zM87.423 31.933l-1.851.93c.296.591.576 1.202.83 1.815l1.914-.795a30.11 30.11 0 0 0-.893-1.95zM82.635 24.699l-1.554 1.446c.463.497.914 1.018 1.341 1.547l1.653-1.334a31.465 31.465 0 0 0-1.44-1.66zM89.226 35.676l-1.908.636c.201.61.387 1.235.546 1.858l1.949-.496c-.171-.67-.369-1.343-.587-1.998z"/></g></svg>