<svg width="916" height="100" xmlns="http://www.w3.org/2000/svg"><g fill="#F0F2F6" fill-rule="evenodd"><path d="M512.72 146.598L607.969 43.97l.152.138-95.25 102.628z"/><path d="M590.472 105.166l17.473-61.15.191.052-17.466 61.151zM540.62 105.096l-6.29-30.523.197-.04 6.291 30.523z"/><path d="M540.653 105.006l67.319-61.046.145.158-67.326 61.033zM470.837 92.044l-.053-.197 63.616-17.39.06.192z"/><path d="M534.387 74.458l73.61-30.516.086.191-73.61 30.516z"/><path d="M456.223 117.453l78.158-42.985.093.177-78.146 42.985z"/><path d="M456.178 117.49l14.542-25.602.179.106-14.543 25.602z"/><path d="M407.01 105.366l-.04-.204 63.815-13.319.046.211z"/><path d="M330.084 150.45l140.692-58.595.073.184-140.686 58.596zM609.07 46.787a2.94 2.94 0 0 1-3.79-1.72 2.947 2.947 0 0 1 1.73-3.78 2.933 2.933 0 0 1 3.789 1.726 2.924 2.924 0 0 1-1.73 3.774M535.457 77.314a2.955 2.955 0 0 1-3.79-1.732 2.94 2.94 0 0 1 1.737-3.78 2.943 2.943 0 0 1 3.789 1.725 2.95 2.95 0 0 1-1.736 3.787"/><path d="M471.843 94.695a2.939 2.939 0 1 1-2.06-5.507 2.944 2.944 0 0 1 3.79 1.733 2.934 2.934 0 0 1-1.73 3.774M556.057 6.565l-.178.113-47.369-75.964.184-.12z"/><path d="M596.536-33.824l-40.497 40.52-.151-.152 40.496-40.513z"/><path d="M596.569-33.894l-12.817 109.48-.21-.027 12.816-109.473z"/><path d="M583.743 75.543l-.19.073L555.865 6.66l.197-.08z"/><path d="M556.024 6.707l-57.993 47.02-.132-.165 57.994-47.02z"/><path d="M555.985 6.72l-97.561 22.827-.046-.198 97.561-22.833z"/><path d="M555.992 6.514l-.06.205-112.391-31.91.059-.199z"/><path d="M508.692-69.292L458.493 29.49l-.184-.092 50.206-98.79z"/><path d="M508.705-69.34L498.074 53.656l-.21-.02 10.63-122.99z"/><path d="M498.021 53.554l-.112.179-40.542-24.26.112-.185zM393.724 25.392l-.21.02-8.88-105.496.204-.02z"/><path d="M443.643-25.21l-49.949 50.687-.151-.152 49.949-50.68z"/><path d="M458.5 29.418l-.198.06-14.837-54.73.204-.06z"/><path d="M443.669-25.274l-17.431 97.092-.21-.033 17.437-97.099z"/><path d="M458.486 29.509L426.218 71.87l-.177-.126 32.274-42.369z"/><path d="M458.41 29.34l-.02.212-64.78-4.043.02-.212z"/><path d="M393.63 25.295l-.019.212-53.438-6.362.026-.205z"/><path d="M393.691 25.328l-.144.152-90.73-80.649.133-.151z"/><path d="M340.285 18.992l-.19.1-37.305-74.287.185-.092z"/><path d="M394.331 63.678l-.138.165-54.07-44.714.132-.165z"/><path d="M340.236 19.134l-62.35 31.402-.093-.179 62.351-31.401zM394.363 63.755l-.21.007-.639-38.359.211-.006z"/><path d="M426.158 71.697l-.052.205-31.874-8.04.053-.205z"/><path d="M435.003 114.68l-.197.046-8.775-42.904.204-.04z"/><path d="M426.152 71.904l-63.16 14.066-.047-.199 63.16-14.072zM394.27 63.871l-89.906 6.495-.013-.212 89.9-6.494z"/><path d="M394.315 63.852l-31.294 22.106-.125-.172 31.3-22.106z"/><path d="M394.302 63.858l-131.686 56.646-.092-.191 131.693-56.646zM304.42 70.188l-.124.158-26.522-19.82.119-.165z"/><path d="M304.443 70.336l-41.793 50.139-.165-.14 41.794-50.131z"/><path d="M350.904 91.072l-.085.192-46.5-20.904.085-.192z"/><path d="M363.01 85.969l-12.106 5.299-.085-.199 12.105-5.285z"/><path d="M350.959 91.195l-6.84 31.283-.204-.04 6.84-31.29z"/><path d="M350.892 91.272l-88.287 29.242-.06-.205 88.287-29.242zM517.12 111.712l-.1.192-37.942-18.697.092-.185z"/><path d="M556.062 6.663l-38.89 105.179-.197-.066 38.89-105.193zM594.267 109.35l-.198.06-10.519-33.8.198-.06z"/><path d="M583.73 75.653l-27.87 31.401-.158-.152 27.87-31.395z"/><path d="M583.666 75.684L479.14 93.22l-.033-.205 104.526-17.541z"/><path d="M555.89 106.982h-.211l.177-100.362h.211zM479.231 93.13l-3.324 53.667-.21-.013 3.323-53.667z"/><path d="M482.175 93.402l-47.23 21.392-.086-.185 47.23-21.399zM498.066 53.69L479.22 93.165l-.198-.092 18.853-39.476zM304.543 67.252a3.023 3.023 0 0 1 2.824 3.198 3.013 3.013 0 0 1-3.192 2.834 3.023 3.023 0 0 1-2.818-3.204 3.001 3.001 0 0 1 3.186-2.828M340.378 16.024a3.027 3.027 0 0 1 2.817 3.205 3.016 3.016 0 0 1-3.192 2.827 3.003 3.003 0 0 1-2.811-3.197 3.011 3.011 0 0 1 3.186-2.835M351.049 88.156a3.005 3.005 0 0 1 2.81 3.204 3.01 3.01 0 0 1-3.185 2.828 3.023 3.023 0 0 1 .375-6.032M363.154 82.86a3.008 3.008 0 0 1 2.81 3.197c-.098 1.665-1.527 2.94-3.185 2.828a3.019 3.019 0 0 1-2.824-3.198c.112-1.665 1.533-2.94 3.199-2.828M426.312 68.788c1.66.099 2.923 1.539 2.824 3.204a3.012 3.012 0 1 1-6.01-.37c.1-1.665 1.534-2.94 3.186-2.834M393.807 22.386a3.018 3.018 0 0 1 2.811 3.204 3.006 3.006 0 0 1-3.186 2.828 3.018 3.018 0 0 1-2.824-3.198 3.035 3.035 0 0 1 3.2-2.834M458.59 26.431a3.02 3.02 0 0 1 2.817 3.204c-.105 1.659-1.534 2.934-3.192 2.821a3 3 0 0 1-2.811-3.197c.099-1.665 1.527-2.94 3.186-2.828M394.447 60.748a3.003 3.003 0 0 1 2.81 3.198 3.009 3.009 0 0 1-6.003-.377 3.01 3.01 0 0 1 3.193-2.82M583.833 72.562a3.037 3.037 0 0 1 2.824 3.204 3.021 3.021 0 0 1-3.199 2.828 3.021 3.021 0 0 1-2.817-3.211 3.015 3.015 0 0 1 3.192-2.821M556.146 3.604a3.033 3.033 0 0 1 2.824 3.205 3.021 3.021 0 0 1-3.2 2.827 3.02 3.02 0 0 1-2.81-3.197c.099-1.665 1.527-2.94 3.186-2.835"/><path d="M498.156 50.626a3.025 3.025 0 0 1-.375 6.039 3.023 3.023 0 0 1-2.817-3.205 3.017 3.017 0 0 1 3.192-2.834M278.026 47.432a3.007 3.007 0 0 1 2.811 3.198c-.099 1.665-1.527 2.94-3.186 2.834a3.027 3.027 0 0 1-2.817-3.204 3.012 3.012 0 0 1 3.192-2.828M479.315 90.105a3.017 3.017 0 0 1 2.817 3.197 3.016 3.016 0 0 1-3.193 2.828 3.017 3.017 0 0 1-2.817-3.198c.105-1.664 1.534-2.94 3.193-2.827M533.7 32.682l47.027-29.97.105.158-47.033 29.977z"/><path d="M486.089-56.532l.099-.158 94.644 59.4-.099.166z"/><path d="M486.051-56.567l.164-.085 47.611 89.378-.164.092zM580.798 2.7l75.56 13.693-.039.192-75.554-13.707z"/><path d="M616.558-85.217l.17.072L580.866 2.83l-.171-.08z"/><path d="M555.973-65.116l.178-.066 24.718 67.941-.17.066zM616.558-85.15l.17-.065L656.42 16.453l-.17.079z"/><path d="M656.666-58.185l.19.006-.42 74.67h-.19zM579.4 5.12a2.697 2.697 0 0 1-.94-3.704 2.677 2.677 0 0 1 3.698-.956 2.706 2.706 0 0 1 .946 3.704 2.696 2.696 0 0 1-3.704.956M532.366 35.102a2.73 2.73 0 0 1-.952-3.717 2.71 2.71 0 0 1 3.71-.949 2.714 2.714 0 0 1 .946 3.71 2.696 2.696 0 0 1-3.704.956"/><path d="M654.96 18.827a2.723 2.723 0 0 1-.953-3.717 2.71 2.71 0 0 1 3.71-.949 2.714 2.714 0 0 1 .946 3.71 2.703 2.703 0 0 1-3.703.956M294.194 27.46L165.536-159.757l.25-.178L294.459 27.296zM304.775 87.358l-.257.164-100.002-158.29.257-.164z"/><path d="M348.207 38.273L204.547-70.716l.184-.25L348.391 38.03zM304.794 87.422l-.297.053-10.327-60.07.303-.053z"/><path d="M348.269 38.3l-53.973-10.77.053-.303 53.972 10.776z"/><path d="M294.474 27.351l-.303.053-13.258-79.21.317-.047zM349.866 37.322l-.237-.185 30.81-41.18.243.178z"/><path d="M294.448 27.46l-.256-.164 25.48-37.57.258.178z"/><path d="M305.78 89.018l-.302-.047 14.167-99.168.31.04zM384.276-6.296a4.39 4.39 0 0 1-1.357 6.053c-2.055 1.291-4.775.685-6.06-1.376a4.384 4.384 0 1 1 7.417-4.677M352.002 35.803a4.39 4.39 0 0 1-1.37 6.06c-2.041 1.298-4.755.679-6.046-1.37a4.383 4.383 0 0 1 1.364-6.053 4.382 4.382 0 0 1 6.052 1.363M298.03 25.036c1.291 2.048.685 4.762-1.356 6.053-2.055 1.29-4.768.685-6.06-1.37a4.381 4.381 0 0 1 1.37-6.053 4.377 4.377 0 0 1 6.047 1.37"/><path d="M308.36 85.1a4.403 4.403 0 0 1-1.37 6.054c-2.055 1.29-4.762.685-6.052-1.364a4.388 4.388 0 0 1 1.37-6.06 4.386 4.386 0 0 1 6.052 1.37M563.795-15.542l.336-.027 13.383 200.237-.343.02z"/><path d="M563.814-15.633l.303.152-79.774 163.142-.296-.151z"/><path d="M564.084-15.67l86.107 92.94-.25.237-86.1-92.954zM673.332-109.785l60.33 150.038-.31.125-60.336-150.038z"/><path d="M673.004-109.744l.343.046-23.108 187.113-.336-.04z"/><path d="M564.02-15.716l169.537 55.872-.099.323-169.55-55.873zM762.118-28.796l.316.132-28.623 70.629-.316-.139zM649.93 77.297l.282.19-72.73 107.277-.277-.178z"/><path d="M650.174 77.258l92.958 67.266-.21.27-92.946-67.266z"/><path d="M733.445 40.165l.131.316-83.437 37.062-.139-.303z"/><path d="M650.071 77.226l158.798 4.028-.014.335-158.79-4.034z"/><path d="M733.593 40.178l75.346 41.09-.165.302-75.346-41.103z"/><path d="M733.348 40.332l.336-.026L743.2 144.64l-.343.026zM808.692 81.404l.336.033-4.948 52.812-.343-.033z"/><path d="M874.891 56.761l.119.316-66.095 24.497-.112-.31z"/><path d="M809.02 81.365l37.927 97.318-.316.118-37.934-97.318zM909.349 91.18h.343l.158 108.823-.35-.007z"/><path d="M875.123 56.876l34.718 143.075-.33.085-34.717-143.074z"/><path d="M875.072 56.806l34.566 34.258-.237.237-34.566-34.258z"/><path d="M915.777-16.204l.343.026-6.431 107.368-.343-.02z"/><path d="M877.17-158.227l32.516 249.39-.336.04-32.524-249.39zM829.418-13.274L875.1 56.822l-.283.198-45.676-70.11zM804.007 81.866c-.237-2.678 1.733-5.048 4.408-5.285a4.859 4.859 0 0 1 .883 9.675 4.875 4.875 0 0 1-5.29-4.39M728.664 40.763a4.86 4.86 0 0 1 4.408-5.279c2.675-.243 5.048 1.725 5.285 4.397a4.863 4.863 0 0 1-4.402 5.278 4.863 4.863 0 0 1-5.29-4.396"/><path d="M870.11 57.359a4.852 4.852 0 0 1 4.402-5.272 4.851 4.851 0 0 1 5.284 4.39 4.862 4.862 0 1 1-9.686.882M645.226 77.83c-.244-2.666 1.733-5.042 4.401-5.279a4.867 4.867 0 0 1 5.291 4.397 4.856 4.856 0 0 1-4.408 5.278 4.865 4.865 0 0 1-5.284-4.396M904.677 91.623a4.862 4.862 0 0 1 4.402-5.278c2.675-.25 5.04 1.73 5.29 4.39.238 2.685-1.732 5.048-4.407 5.285a4.86 4.86 0 0 1-5.285-4.397M67.543-36.992l.33-.02 13.4 200.11-.343.032z"/><path d="M67.556-37.075l.296.151-79.828 163.043-.304-.158z"/><path d="M67.826-37.114l86.186 92.891-.25.23-86.18-92.89zM177.163-131.172l60.394 149.947-.323.132-60.374-149.954z"/><path d="M176.845-131.126l.33.04-23.128 186.999-.33-.046z"/><path d="M67.765-37.159l169.681 55.845-.112.316L67.646-36.837zM266.03-50.23l.31.13-28.64 70.587-.317-.138zM153.75 55.797l.277.184-72.785 107.224-.29-.184z"/><path d="M153.988 55.752l93.031 67.225-.197.283-93.032-67.232z"/><path d="M237.33 18.688l.132.309-83.515 37.053-.126-.316z"/><path d="M153.885 55.72l158.932 4.032-.013.336-158.925-4.033z"/><path d="M237.482 18.694l75.41 41.079-.165.296-75.41-41.079z"/><path d="M237.227 18.861l.343-.039 9.523 104.284-.343.02zM312.638 59.902l.343.033-4.953 52.78-.343-.026z"/><path d="M378.897 35.274l.125.322-66.158 24.476-.112-.316z"/><path d="M312.966 59.857l37.966 97.259-.317.125-37.959-97.26zM413.384 69.679h.336l.165 108.75-.343-.013z"/><path d="M379.129 35.39l34.747 142.987-.336.086-34.748-142.988z"/><path d="M379.087 35.312l34.595 34.244-.244.237-34.602-34.237z"/><path d="M419.824-37.647l.343.026-6.45 107.31-.336-.02z"/><path d="M381.176-179.58l32.545 249.238-.336.04-32.551-249.239zM333.39-34.718l45.715 70.06-.284.184-45.707-70.053zM307.959 60.358c-.244-2.664 1.734-5.032 4.412-5.275a4.863 4.863 0 0 1 5.289 4.394 4.865 4.865 0 0 1-4.406 5.282c-2.684.236-5.051-1.737-5.295-4.401M236.96 14.004a4.872 4.872 0 0 1 5.289 4.4c.244 2.664-1.735 5.039-4.405 5.282-2.684.237-5.052-1.73-5.296-4.407-.244-2.657 1.721-5.032 4.412-5.275z"/><path d="M374.106 35.87c-.238-2.657 1.734-5.038 4.411-5.274 2.678-.237 5.052 1.73 5.29 4.393a4.86 4.86 0 0 1-4.406 5.282 4.877 4.877 0 0 1-5.295-4.4M149.036 56.33a4.871 4.871 0 0 1 4.406-5.282c2.677-.236 5.051 1.73 5.295 4.408.244 2.664-1.734 5.032-4.405 5.275a4.878 4.878 0 0 1-5.296-4.4M408.705 70.122a4.864 4.864 0 0 1 4.406-5.282c2.684-.243 5.051 1.723 5.295 4.394a4.873 4.873 0 0 1-4.405 5.282c-2.684.243-5.052-1.73-5.296-4.394"/></g></svg>