
<svg width="28px" height="19px" viewBox="0 0 28 19" version="1.1" xmlns="http://www.w3.org/2000/svg" xmlns:xlink="http://www.w3.org/1999/xlink">
    <!-- Generator: Sketch 50.2 (55047) - http://www.bohemiancoding.com/sketch -->
    <desc>Created with Sketch.</desc>
    <defs></defs>
    <g id="Page-1" stroke="none" stroke-width="1" fill="none" fill-rule="evenodd">
        <g id="Oracles-MP-Choose" transform="translate(-1362.000000, -41.000000)" fill="#6987B9">
            <g id="Header">
                <path d="M1388.6,49 L1363.4,49 C1362.6272,49 1362,49.672 1362,50.5 C1362,51.328 1362.6272,52 1363.4,52 L1388.6,52 C1389.3728,52 1390,51.328 1390,50.5 C1390,49.672 1389.3728,49 1388.6,49 M1388.6,57 L1363.4,57 C1362.6272,57 1362,57.672 1362,58.5 C1362,59.328 1362.6272,60 1363.4,60 L1388.6,60 C1389.3728,60 1390,59.328 1390,58.5 C1390,57.672 1389.3728,57 1388.6,57 M1363.4,44 L1388.6,44 C1389.3728,44 1390,43.328 1390,42.5 C1390,41.672 1389.3728,41 1388.6,41 L1363.4,41 C1362.6272,41 1362,41.672 1362,42.5 C1362,43.328 1362.6272,44 1363.4,44" id="Icon"></path>
            </g>
        </g>
    </g>
</svg>